<svg xmlns="http://www.w3.org/2000/svg" width="32" height="32" viewBox="0 0 100 100">
  <defs>
    <linearGradient id="yinyang" x1="0%" y1="0%" x2="100%" y2="0%">
      <stop offset="0%" style="stop-color:#8B4513;stop-opacity:1" />
      <stop offset="100%" style="stop-color:#F7F3E9;stop-opacity:1" />
    </linearGradient>
  </defs>
  <circle cx="50" cy="50" r="45" fill="url(#yinyang)" stroke="#8B4513" stroke-width="2" />
  <path d="M50 5 A45 45 0 0 1 50 95 A22.5 22.5 0 0 1 50 50 A22.5 22.5 0 0 0 50 5" fill="#8B4513" />
  <path d="M50 5 A45 45 0 0 0 50 95 A22.5 22.5 0 0 0 50 50 A22.5 22.5 0 0 1 50 5" fill="#F7F3E9" />
  <circle cx="50" cy="27.5" r="5" fill="#F7F3E9" />
  <circle cx="50" cy="72.5" r="5" fill="#8B4513" />
  <g transform="translate(50,50)">
    <g transform="rotate(0)">
      <path d="M-38,0 L-45,0" stroke="#8B4513" stroke-width="2" />
    </g>
    <g transform="rotate(45)">
      <path d="M-38,0 L-45,0" stroke="#8B4513" stroke-width="2" />
    </g>
    <g transform="rotate(90)">
      <path d="M-38,0 L-45,0" stroke="#8B4513" stroke-width="2" />
    </g>
    <g transform="rotate(135)">
      <path d="M-38,0 L-45,0" stroke="#8B4513" stroke-width="2" />
    </g>
    <g transform="rotate(180)">
      <path d="M-38,0 L-45,0" stroke="#8B4513" stroke-width="2" />
    </g>
    <g transform="rotate(225)">
      <path d="M-38,0 L-45,0" stroke="#8B4513" stroke-width="2" />
    </g>
    <g transform="rotate(270)">
      <path d="M-38,0 L-45,0" stroke="#8B4513" stroke-width="2" />
    </g>
    <g transform="rotate(315)">
      <path d="M-38,0 L-45,0" stroke="#8B4513" stroke-width="2" />
    </g>
  </g>
</svg>